# xmcd
#
# Track frame offsets:
#	182
#	15100
#	34900
#	57832
#	76210
#	100872
#	117540
#	135055
#	154227
#	178502
#
# Disc length: 2543 seconds
#
# Revision: 1
# Processed by: cddbd v1.4PL0 Copyright (c) Steve Scherf et al.
# Submitted via: audiograbber 1.82.02
#
DISCID=6d09ed0a
DTITLE=barry white - barry and glodean
DYEAR=1900
DGENRE=Soul
TTITLE0=our theme (pt.1)
TTITLE1=i want you
TTITLE2=you're the only one for me
TTITLE3=this love
TTITLE4=(the) better love is
TTITLE5=the worse it is when it's over
TTITLE6=you
TTITLE7=we can't let go of love
TTITLE8=didn't we make it happen baby
TTITLE9=our theme (pt.2)
EXTD=
EXTT0=
EXTT1=
EXTT2=
EXTT3=
EXTT4=
EXTT5=
EXTT6=
EXTT7=
EXTT8=
EXTT9=
PLAYORDER=
